<mxfile host="Electron" agent="Mozilla/5.0 (Windows NT 10.0; Win64; x64) AppleWebKit/537.36 (KHTML, like Gecko) draw.io/25.0.2 Chrome/128.0.6613.186 Electron/32.2.5 Safari/537.36" version="25.0.2">
  <diagram name="Страница — 1" id="2qEdQBT6wavt-GK-HJLF">
    <mxGraphModel dx="1434" dy="844" grid="1" gridSize="10" guides="1" tooltips="1" connect="1" arrows="1" fold="1" page="1" pageScale="1" pageWidth="827" pageHeight="1169" math="0" shadow="0">
      <root>
        <mxCell id="0" />
        <mxCell id="1" parent="0" />
        <mxCell id="WYHQktSXr10IeQ8Izph9-2" value="A-0" style="swimlane;whiteSpace=wrap;html=1;flipH=0;flipV=1;align=left;" parent="1" vertex="1">
          <mxGeometry x="80" y="180" width="530" height="320" as="geometry" />
        </mxCell>
        <mxCell id="WYHQktSXr10IeQ8Izph9-11" style="edgeStyle=orthogonalEdgeStyle;rounded=0;orthogonalLoop=1;jettySize=auto;html=1;exitX=1;exitY=0.25;exitDx=0;exitDy=0;" parent="WYHQktSXr10IeQ8Izph9-2" source="WYHQktSXr10IeQ8Izph9-3" target="WYHQktSXr10IeQ8Izph9-8" edge="1">
          <mxGeometry relative="1" as="geometry" />
        </mxCell>
        <mxCell id="WYHQktSXr10IeQ8Izph9-12" style="edgeStyle=orthogonalEdgeStyle;rounded=0;orthogonalLoop=1;jettySize=auto;html=1;exitX=1;exitY=0.75;exitDx=0;exitDy=0;" parent="WYHQktSXr10IeQ8Izph9-2" source="WYHQktSXr10IeQ8Izph9-3" target="WYHQktSXr10IeQ8Izph9-10" edge="1">
          <mxGeometry relative="1" as="geometry" />
        </mxCell>
        <mxCell id="WYHQktSXr10IeQ8Izph9-3" value="Збут товару" style="rounded=0;whiteSpace=wrap;html=1;" parent="WYHQktSXr10IeQ8Izph9-2" vertex="1">
          <mxGeometry x="205" y="130" width="120" height="60" as="geometry" />
        </mxCell>
        <mxCell id="WYHQktSXr10IeQ8Izph9-15" style="edgeStyle=orthogonalEdgeStyle;rounded=0;orthogonalLoop=1;jettySize=auto;html=1;exitX=0.5;exitY=1;exitDx=0;exitDy=0;entryX=0.5;entryY=0;entryDx=0;entryDy=0;" parent="WYHQktSXr10IeQ8Izph9-2" source="WYHQktSXr10IeQ8Izph9-4" target="WYHQktSXr10IeQ8Izph9-3" edge="1">
          <mxGeometry relative="1" as="geometry" />
        </mxCell>
        <mxCell id="WYHQktSXr10IeQ8Izph9-4" value="Політика компанії" style="text;html=1;align=center;verticalAlign=middle;whiteSpace=wrap;rounded=0;" parent="WYHQktSXr10IeQ8Izph9-2" vertex="1">
          <mxGeometry x="202.5" y="50" width="125" height="30" as="geometry" />
        </mxCell>
        <mxCell id="MgBC1Nu9QHjzCPN7aIGI-1" style="edgeStyle=orthogonalEdgeStyle;rounded=0;orthogonalLoop=1;jettySize=auto;html=1;exitX=1;exitY=0.5;exitDx=0;exitDy=0;entryX=0;entryY=0.5;entryDx=0;entryDy=0;" edge="1" parent="WYHQktSXr10IeQ8Izph9-2" source="WYHQktSXr10IeQ8Izph9-5" target="WYHQktSXr10IeQ8Izph9-3">
          <mxGeometry relative="1" as="geometry" />
        </mxCell>
        <mxCell id="WYHQktSXr10IeQ8Izph9-5" value="Замовлення клієнта" style="text;html=1;align=center;verticalAlign=middle;whiteSpace=wrap;rounded=0;" parent="WYHQktSXr10IeQ8Izph9-2" vertex="1">
          <mxGeometry x="40" y="145" width="125" height="30" as="geometry" />
        </mxCell>
        <mxCell id="WYHQktSXr10IeQ8Izph9-16" style="edgeStyle=orthogonalEdgeStyle;rounded=0;orthogonalLoop=1;jettySize=auto;html=1;exitX=0.5;exitY=0;exitDx=0;exitDy=0;entryX=0.5;entryY=1;entryDx=0;entryDy=0;" parent="WYHQktSXr10IeQ8Izph9-2" source="WYHQktSXr10IeQ8Izph9-7" target="WYHQktSXr10IeQ8Izph9-3" edge="1">
          <mxGeometry relative="1" as="geometry" />
        </mxCell>
        <mxCell id="WYHQktSXr10IeQ8Izph9-7" value="Відділ продажів, Логістика, Транспортна компанія" style="text;html=1;align=center;verticalAlign=middle;whiteSpace=wrap;rounded=0;" parent="WYHQktSXr10IeQ8Izph9-2" vertex="1">
          <mxGeometry x="116.25" y="240" width="297.5" height="30" as="geometry" />
        </mxCell>
        <mxCell id="WYHQktSXr10IeQ8Izph9-8" value="Доставлений товар" style="text;html=1;align=center;verticalAlign=middle;whiteSpace=wrap;rounded=0;" parent="WYHQktSXr10IeQ8Izph9-2" vertex="1">
          <mxGeometry x="370" y="130" width="125" height="30" as="geometry" />
        </mxCell>
        <mxCell id="WYHQktSXr10IeQ8Izph9-10" value="Зворотній зв&#39;язок" style="text;html=1;align=center;verticalAlign=middle;whiteSpace=wrap;rounded=0;" parent="WYHQktSXr10IeQ8Izph9-2" vertex="1">
          <mxGeometry x="370" y="160" width="125" height="30" as="geometry" />
        </mxCell>
        <mxCell id="WYHQktSXr10IeQ8Izph9-17" value="0" style="text;html=1;align=right;verticalAlign=bottom;whiteSpace=wrap;rounded=0;" parent="WYHQktSXr10IeQ8Izph9-2" vertex="1">
          <mxGeometry x="265" y="160" width="60" height="30" as="geometry" />
        </mxCell>
      </root>
    </mxGraphModel>
  </diagram>
</mxfile>
